<?xml version="1.0" standalone="no"?><!DOCTYPE svg PUBLIC "-//W3C//DTD SVG 1.1//EN" "http://www.w3.org/Graphics/SVG/1.1/DTD/svg11.dtd"><svg t="1675416837965" class="icon" viewBox="0 0 1024 1024" version="1.1" xmlns="http://www.w3.org/2000/svg" p-id="5931" xmlns:xlink="http://www.w3.org/1999/xlink" width="200" height="200"><path d="M512 772.39637333c-153.79114667 0-279.03772445-125.24657778-279.03772445-279.03772444V145.58094222c0-13.39847111 11.06830222-25.04931555 25.04931556-25.04931555h508.55936c13.39847111 0 25.04931555 11.06830222 25.04931556 25.04931555v347.19516445c-0.58254222 154.37368889-125.82912 279.62026667-279.62026667 279.62026666z" fill="#2C2C2C" p-id="5932"></path><path d="M288.88632889 653.55776c-95.53692445 0-173.01504-77.47811555-173.01504-173.01504V290.63395555c0-16.31118222 13.39847111-29.70965333 29.70965333-29.70965333h110.10048c16.31118222 0 29.70965333 13.39847111 29.70965333 29.70965333s-13.39847111 29.70965333-29.70965333 29.70965334h-80.39082667v160.78165333c0 62.91456 51.26371555 113.59573333 113.59573334 113.59573333 16.31118222 0 29.70965333 13.39847111 29.70965333 29.70965334s-13.39847111 29.12711111-29.70965333 29.12711111z m446.22734222 0c-16.31118222 0-29.70965333-13.39847111-29.70965333-29.70965333s13.39847111-29.70965333 29.70965333-29.70965334c62.91456 0 113.59573333-51.26371555 113.59573334-113.59573333v-160.19911111H768.31857778c-16.31118222 0-29.70965333-13.39847111-29.70965333-29.70965334s13.39847111-29.70965333 29.70965333-29.70965333h110.10048c16.31118222 0 29.70965333 13.39847111 29.70965333 29.70965333v190.49130667c0 94.95438222-77.47811555 172.43249778-173.01504 172.43249778zM678.02453333 937.83836445H345.97546667c-16.31118222 0-29.70965333-13.39847111-29.70965334-29.70965334s13.39847111-29.70965333 29.70965334-29.70965333h332.63160888c16.31118222 0 29.70965333 13.39847111 29.70965334 29.70965333s-13.39847111 29.70965333-30.29219556 29.70965334z" fill="#2C2C2C" p-id="5933"></path><path d="M512 914.53667555c-16.31118222 0-29.70965333-13.39847111-29.70965333-29.70965333V747.34705778c0-16.31118222 13.39847111-29.70965333 29.70965333-29.70965333s29.70965333 13.39847111 29.70965333 29.70965333V884.82702222c0 16.31118222-13.39847111 29.70965333-29.70965333 29.70965333z" fill="#2C2C2C" p-id="5934"></path></svg>