<?xml version="1.0" standalone="no"?><!DOCTYPE svg PUBLIC "-//W3C//DTD SVG 1.1//EN" "http://www.w3.org/Graphics/SVG/1.1/DTD/svg11.dtd"><svg t="1666853878966" class="icon" viewBox="0 0 1024 1024" version="1.1" xmlns="http://www.w3.org/2000/svg" p-id="1607" xmlns:xlink="http://www.w3.org/1999/xlink" width="200" height="200"><path d="M842.472727 83.781818h-660.945454c-65.163636 0-125.672727 60.509091-125.672728 125.672727v107.054546c0 18.618182 18.618182 37.236364 37.236364 37.236364s37.236364-18.618182 37.236364-37.236364v-107.054546c0-27.927273 23.272727-51.2 51.2-51.2h660.945454c27.927273 0 51.2 23.272727 51.2 51.2v111.709091c0 18.618182 18.618182 37.236364 37.236364 37.236364s37.236364-18.618182 37.236364-37.236364v-111.709091c0-69.818182-60.509091-125.672727-125.672728-125.672727zM930.909091 670.254545c-18.618182 0-37.236364 18.618182-37.236364 37.236364v111.709091c0 27.927273-23.272727 51.2-51.2 51.2h-660.945454c-27.927273 0-51.2-23.272727-51.2-51.2v-111.709091c0-18.618182-18.618182-37.236364-37.236364-37.236364s-37.236364 18.618182-37.236364 37.236364v111.709091c0 65.163636 60.509091 125.672727 125.672728 125.672727h660.945454c65.163636 0 125.672727-60.509091 125.672728-125.672727v-111.709091c0-23.272727-18.618182-37.236364-37.236364-37.236364zM372.363636 386.327273c-9.309091-18.618182-32.581818-23.272727-51.2-13.963637l-176.872727 102.4c-9.309091 4.654545-18.618182 18.618182-18.618182 32.581819s9.309091 23.272727 18.618182 32.581818l176.872727 102.4c18.618182 9.309091 41.890909 4.654545 51.2-13.963637 9.309091-18.618182 4.654545-41.890909-13.963636-51.2l-121.018182-69.818181 121.018182-69.818182c18.618182-9.309091 23.272727-32.581818 13.963636-51.2zM651.636364 628.363636c9.309091 18.618182 32.581818 23.272727 51.2 13.963637l176.872727-102.4c9.309091-4.654545 18.618182-18.618182 18.618182-32.581818s-9.309091-23.272727-18.618182-32.581819l-176.872727-102.4c-18.618182-9.309091-41.890909-4.654545-51.2 13.963637-9.309091 18.618182-4.654545 41.890909 13.963636 51.2l121.018182 69.818182-121.018182 69.818181c-18.618182 9.309091-23.272727 32.581818-13.963636 51.2z" p-id="1608"></path><path d="M488.727273 679.563636l116.363636-325.818181c4.654545-18.618182-4.654545-37.236364-23.272727-46.545455-18.618182-4.654545-37.236364 4.654545-46.545455 23.272727l-116.363636 325.818182c-4.654545 18.618182 4.654545 37.236364 23.272727 46.545455s37.236364 0 46.545455-23.272728z" p-id="1609"></path></svg>