<?xml version="1.0" standalone="no"?><!DOCTYPE svg PUBLIC "-//W3C//DTD SVG 1.1//EN" "http://www.w3.org/Graphics/SVG/1.1/DTD/svg11.dtd"><svg t="1666853898830" class="icon" viewBox="0 0 1024 1024" version="1.1" xmlns="http://www.w3.org/2000/svg" p-id="1915" id="mx_n_1666853898831" data-spm-anchor-id="a313x.7781069.0.i5" xmlns:xlink="http://www.w3.org/1999/xlink" width="200" height="200"><path d="M842.472727 60.509091H372.363636c-18.618182 0-37.236364 18.618182-37.236363 37.236364s18.618182 37.236364 37.236363 37.236363h470.109091c32.581818 0 55.854545 23.272727 55.854546 55.854546v651.636363c0 32.581818-23.272727 55.854545-55.854546 55.854546h-651.636363c-32.581818 0-55.854545-23.272727-55.854546-55.854546V363.054545c0-18.618182-18.618182-37.236364-37.236363-37.236363s-37.236364 18.618182-37.236364 37.236363v479.418182c0 69.818182 60.509091 130.327273 130.327273 130.327273h651.636363c69.818182 0 130.327273-60.509091 130.327273-130.327273v-651.636363c0-74.472727-60.509091-130.327273-130.327273-130.327273z" p-id="1916"></path><path d="M777.309091 609.745455c23.272727 0 37.236364-18.618182 37.236364-37.236364s-18.618182-37.236364-37.236364-37.236364h-144.290909c-18.618182 0-37.236364 18.618182-37.236364 37.236364s18.618182 37.236364 37.236364 37.236364h144.290909zM437.527273 493.381818c13.963636 13.963636 37.236364 13.963636 55.854545 0 13.963636-13.963636 13.963636-37.236364 0-51.2l-377.018182-377.018182c-13.963636-13.963636-37.236364-13.963636-51.2 0s-13.963636 37.236364 0 51.2l372.363637 377.018182zM209.454545 744.727273c0 18.618182 18.618182 37.236364 37.236364 37.236363h530.618182c23.272727 0 37.236364-13.963636 37.236364-37.236363 0-18.618182-18.618182-37.236364-37.236364-37.236364h-530.618182c-18.618182 0-37.236364 18.618182-37.236364 37.236364z" p-id="1917"></path></svg>