<?xml version="1.0" standalone="no"?><!DOCTYPE svg PUBLIC "-//W3C//DTD SVG 1.1//EN" "http://www.w3.org/Graphics/SVG/1.1/DTD/svg11.dtd"><svg t="1666853843445" class="icon" viewBox="0 0 1024 1024" version="1.1" xmlns="http://www.w3.org/2000/svg" p-id="1318" xmlns:xlink="http://www.w3.org/1999/xlink" width="200" height="200"><path d="M949.527273 456.145455l-381.672728-381.672728c-13.963636-13.963636-32.581818-23.272727-55.854545-23.272727-18.618182 0-37.236364 4.654545-55.854545 23.272727l-381.672728 381.672728c-13.963636 13.963636-23.272727 32.581818-23.272727 55.854545 0 18.618182 9.309091 41.890909 23.272727 55.854545l9.309091 9.309091 88.436364 27.927273v269.963636c0 60.509091 46.545455 107.054545 107.054545 107.054546h190.836364V791.272727s0-4.654545 4.654545-4.654545h83.781819s4.654545 0 4.654545 4.654545v186.181818h181.527273c60.509091 0 107.054545-46.545455 107.054545-107.054545v-269.963636l93.090909-27.927273 9.309091-9.309091c13.963636-13.963636 23.272727-32.581818 18.618182-60.509091 0-13.963636-4.654545-32.581818-23.272727-46.545454z m-186.181818 414.254545c0 9.309091 0 18.618182-4.654546 23.272727-4.654545 4.654545-9.309091 9.309091-18.618182 9.309091h-102.4v-116.363636c0-41.890909-37.236364-79.127273-79.127272-79.127273h-79.127273c-41.890909 0-79.127273 37.236364-79.127273 79.127273v116.363636H279.272727c-18.618182 0-32.581818-13.963636-32.581818-32.581818v-321.163636l-125.672727-37.236364v-4.654545l381.672727-381.672728s4.654545 0 4.654546-4.654545l4.654545 4.654545 381.672727 381.672728s0 4.654545 4.654546 4.654545l-130.327273 37.236364-4.654545 321.163636z" p-id="1319"></path></svg>