<?xml version="1.0" standalone="no"?><!DOCTYPE svg PUBLIC "-//W3C//DTD SVG 1.1//EN" "http://www.w3.org/Graphics/SVG/1.1/DTD/svg11.dtd"><svg t="1666853865874" class="icon" viewBox="0 0 1024 1024" version="1.1" xmlns="http://www.w3.org/2000/svg" p-id="1462" xmlns:xlink="http://www.w3.org/1999/xlink" width="200" height="200"><path d="M902.981818 335.127273l-32.581818-18.618182v-153.6c0-32.581818-13.963636-60.509091-32.581818-83.781818-27.927273-18.618182-55.854545-32.581818-88.436364-32.581818h-474.763636c-32.581818 0-60.509091 13.963636-83.781818 32.581818-23.272727 23.272727-32.581818 55.854545-32.581819 83.781818v153.6l-37.236363 18.618182c-37.236364 23.272727-60.509091 60.509091-60.509091 102.4v418.909091c0 32.581818 13.963636 60.509091 32.581818 83.781818 23.272727 23.272727 51.2 37.236364 83.781818 37.236363h670.254546c32.581818 0 60.509091-13.963636 83.781818-32.581818 23.272727-23.272727 32.581818-51.2 32.581818-83.781818v-418.909091c4.654545-46.545455-23.272727-83.781818-60.509091-107.054545z m-674.909091-172.218182c0-9.309091 4.654545-23.272727 13.963637-32.581818s18.618182-13.963636 32.581818-13.963637h474.763636c23.272727 0 46.545455 18.618182 46.545455 46.545455v283.927273l-283.927273 167.563636-283.927273-167.563636v-283.927273z m-88.436363 232.727273c0-4.654545 4.654545-4.654545 9.309091-9.309091l23.272727-13.963637v55.854546l-46.545455-27.927273 13.963637-4.654545z m758.690909 465.454545c-4.654545 23.272727-23.272727 46.545455-51.2 46.545455h-670.254546c-23.272727 0-46.545455-18.618182-46.545454-46.545455v-386.327273l358.4 204.8c4.654545 4.654545 13.963636 9.309091 23.272727 9.309091h9.309091c9.309091 0 18.618182-4.654545 23.272727-9.309091l353.745455-204.8v386.327273z m-41.890909-428.218182v-55.854545l18.618181 9.309091c4.654545 4.654545 9.309091 4.654545 9.309091 9.309091l13.963637 9.309091-41.890909 27.927272z" p-id="1463"></path><path d="M688.872727 409.6c9.309091-13.963636 9.309091-27.927273 0-37.236364-9.309091-13.963636-18.618182-18.618182-32.581818-18.618181h-288.581818c-18.618182 0-32.581818 18.618182-32.581818 37.236363s13.963636 32.581818 32.581818 37.236364h288.581818c13.963636 0 23.272727-4.654545 32.581818-18.618182zM367.709091 297.890909h293.236364c13.963636 0 23.272727-4.654545 32.581818-18.618182 9.309091-13.963636 9.309091-27.927273 0-37.236363-9.309091-13.963636-18.618182-18.618182-32.581818-18.618182H372.363636c-18.618182 0-32.581818 18.618182-32.581818 37.236363-4.654545 18.618182 9.309091 37.236364 27.927273 37.236364z" p-id="1464"></path></svg>