<svg id="图层_1" data-name="图层 1" xmlns="http://www.w3.org/2000/svg" viewBox="0 0 14 14"><defs><style>.cls-1{fill:#fff;}</style></defs><title>收缩菜单</title><path class="cls-1" d="M1,1.5a.5.5,0,0,1,0-1H13a.5.5,0,0,1,0,1Z"/><path d="M13,0H1A1,1,0,0,0,1,2H13a1,1,0,0,0,0-2Z"/><path class="cls-1" d="M1,7.5a.5.5,0,0,1,0-1H13a.5.5,0,0,1,0,1Z"/><path d="M13,6H1A1,1,0,0,0,1,8H13a1,1,0,0,0,0-2Z"/><path class="cls-1" d="M1,13.5a.5.5,0,0,1,0-1H9a.5.5,0,0,1,0,1Z"/><path d="M9,12H1a1,1,0,0,0,0,2H9a1,1,0,0,0,0-2Z"/></svg>