<svg id="图层_1" data-name="图层 1" xmlns="http://www.w3.org/2000/svg" viewBox="0 0 14 14"><defs><style>.cls-1{fill:#fff;}</style></defs><title>收缩菜单_画板 1</title><rect class="cls-1" width="14" height="1" rx="0.5"/><path d="M13.5,0H.5A.5.5,0,0,0,0,.5.5.5,0,0,0,.5,1h13A.51.51,0,0,0,14,.5a.5.5,0,0,0-.5-.5Z"/><rect class="cls-1" y="6.5" width="14" height="1" rx="0.5"/><path d="M13.5,6.5H.5a.5.5,0,0,0,0,1h13a.5.5,0,0,0,0-1Z"/><rect class="cls-1" y="13" width="10" height="1" rx="0.5"/><path d="M9.5,13H.5a.5.5,0,0,0,0,1h9a.5.5,0,0,0,0-1Z"/></svg>