<svg t="1656054992791" class="icon" viewBox="0 0 1024 1024" version="1.1" xmlns="http://www.w3.org/2000/svg" p-id="2609" width="200" height="200"><path d="M417.696 224c0-52.928 43.072-96 96-96s96 43.072 96 96-43.072 96-96 96S417.696 276.928 417.696 224z" p-id="2610"></path><path d="M417.696 512c0-52.928 43.072-96 96-96s96 43.072 96 96-43.072 96-96 96S417.696 564.928 417.696 512z" p-id="2611"></path><path d="M417.696 800c0-52.928 43.072-96 96-96s96 43.072 96 96-43.072 96-96 96S417.696 852.928 417.696 800z" p-id="2612"></path></svg>