<?xml version="1.0" standalone="no"?><!DOCTYPE svg PUBLIC "-//W3C//DTD SVG 1.1//EN" "http://www.w3.org/Graphics/SVG/1.1/DTD/svg11.dtd"><svg t="1639022295690" class="icon" viewBox="0 0 1024 1024" version="1.1" xmlns="http://www.w3.org/2000/svg" p-id="4930" xmlns:xlink="http://www.w3.org/1999/xlink" width="200" height="200"><defs><style type="text/css"></style></defs><path d="M945.607 439.41H77.483c-40.05 0-72.704 32.768-72.704 72.704 0 40.05 32.768 72.704 72.704 72.704h868.124c40.05 0 72.704-32.768 72.704-72.704 0-39.936-32.768-72.704-72.704-72.704z m-0.341 327.338H77.14c-40.05 0-72.704 32.768-72.704 72.704 0 40.05 32.768 72.704 72.704 72.704h868.125c40.05 0 72.704-32.768 72.704-72.704 0-40.05-32.654-72.704-72.704-72.704z m1.138-651.377H78.279c-40.05 0-72.704 32.768-72.704 72.704 0 40.05 32.768 72.704 72.704 72.704h868.125c40.05 0 72.704-32.768 72.704-72.704 0-40.05-32.768-72.704-72.704-72.704z" p-id="4931"></path></svg>