<?xml version="1.0" standalone="no"?><!DOCTYPE svg PUBLIC "-//W3C//DTD SVG 1.1//EN" "http://www.w3.org/Graphics/SVG/1.1/DTD/svg11.dtd"><svg t="1687171555957" class="icon" viewBox="0 0 1024 1024" version="1.1" xmlns="http://www.w3.org/2000/svg" p-id="2291" xmlns:xlink="http://www.w3.org/1999/xlink" width="200" height="200"><path d="M511.2 99.5c-229.2 0-415 185-415 413.2s185.8 413.2 415 413.2 415-185 415-413.2-185.8-413.2-415-413.2z m0 769c-197.3 0-357.3-159.3-357.3-355.7 0-196.5 160-355.7 357.3-355.7s357.3 159.3 357.3 355.7c-0.1 196.4-160 355.7-357.3 355.7z" fill="#2680F0" p-id="2292"></path><path d="M293.4 541.4c-8.1-7.4-8.8-20.1-1.4-28.2l9.3-10.3c7.4-8.1 20.1-8.8 28.3-1.4l108.1 98.2c8.1 7.4 20.9 6.8 28.2-1.4L690.5 351c7.4-8.1 20.1-8.8 28.2-1.4l10.2 9.3c8.1 7.4 8.8 20.1 1.4 28.3L469.7 674.5c-7.4 8.1-20.1 8.8-28.2 1.4L293.4 541.4z" fill="#2680F0" p-id="2293"></path></svg>