<?xml version="1.0" standalone="no"?><!DOCTYPE svg PUBLIC "-//W3C//DTD SVG 1.1//EN" "http://www.w3.org/Graphics/SVG/1.1/DTD/svg11.dtd"><svg t="1690360511112" class="icon" viewBox="0 0 1028 1024" version="1.1" xmlns="http://www.w3.org/2000/svg" p-id="3169" xmlns:xlink="http://www.w3.org/1999/xlink" width="200.78125" height="200"><path d="M4.267 4.249h1019.75V1024H4.268z" fill="#f46862" fill-opacity="0" p-id="3170"></path><path d="M51.005 373.909c-29.742 0-46.738-16.996-46.738-46.739V140.216C4.267 67.983 68 0 144.482 0h186.955c29.743 0 46.738 16.996 46.738 46.739s-16.995 46.738-46.738 46.738H144.482c-29.742 0-46.738 16.996-46.738 46.739V327.17c0 29.743-21.245 46.739-46.739 46.739zM327.188 1024H140.233C68.001 1024 0.018 960.266 0.018 883.784V696.83c0-29.743 16.996-46.739 46.738-46.739 29.743 0 46.739 16.996 46.739 46.739v186.954c0 29.743 16.996 46.739 46.738 46.739h186.955c29.743 0 46.738 16.996 46.738 46.738S356.931 1024 327.188 1024z m556.614 0H696.848c-29.743 0-46.739-16.996-46.739-46.739s16.996-46.738 46.739-46.738h186.954c29.743 0 46.739-16.996 46.739-46.739V696.83c0-29.743 16.995-46.739 46.738-46.739s46.739 16.996 46.739 46.739v186.954c0 76.482-63.735 140.216-140.216 140.216z m93.477-650.091c-29.743 0-46.738-16.996-46.738-46.739V140.216c0-29.743-16.996-46.739-46.74-46.739H696.849c-29.743 0-46.739-16.996-46.739-46.738S667.105 0 696.848 0h186.954c72.232 0 140.216 63.734 140.216 140.216V327.17c0 29.743-16.996 46.739-46.739 46.739z m0 186.954H51.005c-29.742 0-46.738-16.996-46.738-46.739 0-29.742 16.996-46.738 46.738-46.738H977.28c29.743 0 46.739 16.996 46.739 46.738 0 29.743-16.996 46.74-46.739 46.74z" fill="#f46862" p-id="3171"></path></svg>