<?xml version="1.0" standalone="no"?><!DOCTYPE svg PUBLIC "-//W3C//DTD SVG 1.1//EN" "http://www.w3.org/Graphics/SVG/1.1/DTD/svg11.dtd"><svg t="1687918818897" class="icon" viewBox="0 0 1024 1024" version="1.1" xmlns="http://www.w3.org/2000/svg" p-id="3797" xmlns:xlink="http://www.w3.org/1999/xlink" width="200" height="200"><path d="M512 1024a512 512 0 1 1 512-512 512 512 0 0 1-512 512z m0-972.8a460.8 460.8 0 1 0 460.8 460.8 460.8 460.8 0 0 0-460.8-460.8z m15.36 708.096a138.24 138.24 0 0 1-96.1536-34.5088 133.376 133.376 0 0 1-43.6736-89.3952l54.016-7.2192a118.9376 118.9376 0 0 0 31.6416 66.1504 78.1824 78.1824 0 0 0 54.4768 20.48 87.04 87.04 0 0 0 64.3584-26.4192 89.088 89.088 0 0 0 26.2656-65.3824 82.8416 82.8416 0 0 0-24.32-61.44 84.0192 84.0192 0 0 0-61.7984-24.1664 155.0848 155.0848 0 0 0-38.0928 5.9904l5.9904-47.4112a81.5616 81.5616 0 0 0 8.704 0.6144 111.2064 111.2064 0 0 0 62.1056-18.0224 61.44 61.44 0 0 0 27.5968-55.5008A65.6896 65.6896 0 0 0 578.56 373.76a71.68 71.68 0 0 0-51.9168-19.5072 73.5232 73.5232 0 0 0-52.48 19.8144 99.3792 99.3792 0 0 0-26.9824 59.392l-54.272-9.5744a138.8032 138.8032 0 0 1 45.0048-84.1728 130.0992 130.0992 0 0 1 87.296-29.8496 143.872 143.872 0 0 1 66.304 15.36 111.8208 111.8208 0 0 1 46.336 42.1376 108.3392 108.3392 0 0 1 16.0256 56.6784 92.8256 92.8256 0 0 1-15.36 51.9168 104.4992 104.4992 0 0 1-45.312 37.2224 102.0416 102.0416 0 0 1 60.6208 37.3248 113.664 113.664 0 0 1 21.6064 70.9632 129.792 129.792 0 0 1-41.984 97.6384 147.712 147.712 0 0 1-106.0864 40.192z" fill="#999999" p-id="3798"></path></svg>