<?xml version="1.0" standalone="no"?><!DOCTYPE svg PUBLIC "-//W3C//DTD SVG 1.1//EN" "http://www.w3.org/Graphics/SVG/1.1/DTD/svg11.dtd"><svg t="1687748316691" class="icon" viewBox="0 0 1024 1024" version="1.1" xmlns="http://www.w3.org/2000/svg" p-id="6678" xmlns:xlink="http://www.w3.org/1999/xlink" width="200" height="200"><path d="M512 160c190.08 0 351.168 101.76 483.232 305.28l8.064 12.608a64 64 0 0 1 0 68.224C869.728 758.08 705.92 864 512 864c-171.84 0-322.464-101.824-451.84-305.504l-8.064-12.832a64 64 0 0 1 0-67.296C183.296 266.112 336.576 160 512 160z m0 160a192 192 0 1 0 0 384 192 192 0 0 0 0-384z m0 64a128 128 0 1 1 0 256 128 128 0 0 1 0-256z" fill="#1890ff" p-id="6679" data-spm-anchor-id="a313x.7781069.0.i10" class="selected"></path></svg>